<svg aria-hidden="true" style="position : absolute ;width : 0;height: 0" xmlns="http://www.w3.org/2000/svg" overflow="hidden">
    <defs>
        <symbol id="icon-linkedin" viewBox="0 0 32 32"><path d="M31.992 32H32V20.262c0-5.741-1.237-10.163-7.947-10.163-3.227 0-5.392 1.77-6.277 3.45h-.093v-2.914h-6.365v21.363h6.627V21.42c0-2.786.528-5.48 3.978-5.48 3.398 0 3.448 3.179 3.448 5.658V32h6.621zM.528 10.635h6.635V32H.528V10.635zM3.843 0A3.843 3.843 0 000 3.843c0 2.12 1.722 3.878 3.843 3.878 2.12 0 3.842-1.757 3.842-3.878S5.965.002 3.844 0z" fill="#436EAB"/>
        </symbol>
        <symbol id="icon-twitter" viewBox="0 0 32 32"><path d="M32 6.078c-1.1.493-2.376.857-3.713 1.028l-.068.007a6.556 6.556 0 002.873-3.579l.013-.046a12.88 12.88 0 01-4.076 1.573l-.084.014A6.558 6.558 0 0015.6 9.557v.004c0 .52.043 1.021.152 1.496-5.454-.266-10.28-2.88-13.522-6.861a6.524 6.524 0 00-.902 3.313v.001a6.57 6.57 0 002.914 5.451 6.453 6.453 0 01-2.994-.823l.033.017v.072a6.592 6.592 0 005.213 6.44l.043.008a6.403 6.403 0 01-1.662.215h-.061.003c-.419 0-.843-.024-1.242-.112.85 2.598 3.261 4.509 6.13 4.57a13.093 13.093 0 01-8.122 2.8H1.57h.001-.062c-.531 0-1.055-.034-1.569-.099l.061.006c2.826 1.846 6.287 2.944 10.004 2.944h.063-.003c12.072 0 18.672-10 18.672-18.669 0-.288-.01-.57-.024-.848a13.203 13.203 0 003.258-3.355l.03-.047z"/>
        </symbol>
        <symbol id="icon-facebook" viewBox="0 0 32 32"><path d="M21.328 5.312h2.923V.224A36.483 36.483 0 0020.143 0h-.156.008c-4.213 0-7.099 2.65-7.099 7.52V12H8.25v5.688h4.646V32h5.699V17.69h4.459l.707-5.688h-5.168V8.08c0-1.643.443-2.768 2.734-2.768z"/>
        </symbol>
        <symbol id="icon-sign-left" viewBox="0 0 27 16"><path d="M26 7C26.5523 7 27 7.44772 27 8C27 8.55228 26.5523 9 26 9V7ZM0.292892 8.70711C-0.0976315 8.31658 -0.0976315 7.68342 0.292892 7.29289L6.65685 0.928932C7.04738 0.538408 7.68054 0.538408 8.07107 0.928932C8.46159 1.31946 8.46159 1.95262 8.07107 2.34315L2.41421 8L8.07107 13.6569C8.46159 14.0474 8.46159 14.6805 8.07107 15.0711C7.68054 15.4616 7.04738 15.4616 6.65685 15.0711L0.292892 8.70711ZM26 9H1V7H26V9Z" fill="#FF6B09"/>
        </symbol>
        <symbol id="icon-sign-right" viewBox="0 0 27 16"><path d="M1 7C0.447715 7 0 7.44772 0 8C0 8.55228 0.447715 9 1 9V7ZM26.7071 8.70711C27.0976 8.31658 27.0976 7.68342 26.7071 7.29289L20.3431 0.928932C19.9526 0.538408 19.3195 0.538408 18.9289 0.928932C18.5384 1.31946 18.5384 1.95262 18.9289 2.34315L24.5858 8L18.9289 13.6569C18.5384 14.0474 18.5384 14.6805 18.9289 15.0711C19.3195 15.4616 19.9526 15.4616 20.3431 15.0711L26.7071 8.70711ZM1 9H26V7H1V9Z" fill="#FF6B09"/>
        </symbol>
        <symbol id="icon-instagram" viewBox="0 0 32 32"><path d="M31.968 9.408c-.074-1.701-.349-2.869-.742-3.882a7.839 7.839 0 00-1.85-2.837l-.001-.001A7.906 7.906 0 0026.597.861l-.054-.018C25.524.449 24.362.176 22.661.101 20.949.019 20.405 0 16.059 0c-4.344 0-4.888.019-6.595.094-1.699.074-2.869.349-3.88.742a7.847 7.847 0 00-2.839 1.85l-.001.001A7.9 7.9 0 00.919 5.465l-.018.054C.506 6.538.232 7.7.157 9.401c-.082 1.712-.101 2.256-.101 6.602 0 4.344.019 4.888.094 6.595.075 1.701.35 2.869.744 3.882a7.915 7.915 0 001.849 2.837l.001.001c.8.813 1.77 1.443 2.832 1.843 1.019.395 2.182.67 3.882.744 1.707.075 2.251.094 6.595.094 4.346 0 4.89-.019 6.595-.094 1.701-.074 2.869-.349 3.882-.742a8.237 8.237 0 004.664-4.628l.019-.055c.394-1.019.669-2.182.744-3.882.075-1.707.093-2.251.093-6.595s-.006-4.888-.08-6.595zm-2.88 13.066c-.07 1.563-.333 2.406-.55 2.97a5.341 5.341 0 01-3.004 3.024l-.036.012c-.56.219-1.411.482-2.968.55-1.688.075-2.194.094-6.464.094-4.269 0-4.782-.019-6.464-.094-1.563-.069-2.406-.331-2.97-.55a4.953 4.953 0 01-1.836-1.192l-.001-.001a4.978 4.978 0 01-1.184-1.803L3.6 25.45c-.218-.563-.48-1.413-.549-2.97-.075-1.688-.094-2.195-.094-6.464 0-4.27.019-4.784.094-6.464.069-1.563.331-2.406.549-2.97a4.897 4.897 0 011.198-1.837l.002-.002a4.972 4.972 0 011.806-1.182l.034-.011c.56-.219 1.411-.48 2.968-.55 1.688-.074 2.195-.093 6.464-.093 4.275 0 4.782.019 6.464.093 1.563.069 2.406.331 2.97.55a4.91 4.91 0 011.837 1.194c.531.52.938 1.144 1.195 1.84.218.56.48 1.411.549 2.968.075 1.688.094 2.194.094 6.464 0 4.269-.019 4.768-.094 6.458z"/><path d="M16.059 7.782a8.223 8.223 0 00-8.219 8.221 8.223 8.223 0 0016.442.008v-.009a8.223 8.223 0 00-8.221-8.221zm0 13.552a5.333 5.333 0 01.001-10.666h.001a5.334 5.334 0 110 10.668zM26.525 7.458a1.92 1.92 0 01-3.84 0 1.92 1.92 0 013.84 0z"/>
        </symbol>
        <symbol id="Capa_1" viewBox="0 0 512 512"><path d="m491.54 473.398-23.185-159.257c-.589-4.047-4.472-6.939-8.518-6.354-4.053.586-6.944 4.469-6.354 8.519l23.185 159.257c1.621 11.125-7.285 21.408-18.517 21.408h-303.238c-4.151 0-7.515 3.364-7.515 7.515s3.364 7.515 7.515 7.515h303.237c15.286 0 29.018-10.697 32.731-25.537 1.066-4.261 1.291-8.72.659-13.066z"/><path d="m204.635 252.558v-46.933c0-4.151-3.364-7.515-7.515-7.515h-7.989v-39.941h133.731v39.941h-7.99c-4.151 0-7.515 3.364-7.515 7.515v46.933c0 19.924 16.208 36.133 36.132 36.133s36.133-16.209 36.133-36.133v-46.933c0-4.151-3.364-7.515-7.515-7.515h-7.989v-39.941h54.694c6.641 0 12.37 4.955 13.326 11.527l17.006 116.81c.598 4.105 4.564 7.008 8.658 6.331 3.986-.659 6.798-4.493 6.215-8.496l-17.007-116.811c-2.024-13.905-14.147-24.391-28.199-24.391h-54.694v-35.018c.001-59.618-48.503-108.121-108.121-108.121s-108.122 48.503-108.122 108.121v35.018h-54.694c-14.052 0-26.174 10.486-28.199 24.391l-44.529 305.868c-2.24 15.386 6.71 30.717 21.207 36.328 3.876 1.5 8.026 2.273 12.182 2.273h71.014c4.151 0 7.515-3.364 7.515-7.515s-3.364-7.515-7.515-7.515h-71.014c-11.232 0-20.138-10.283-18.517-21.408l44.529-305.868c.956-6.571 6.685-11.527 13.326-11.527h54.695v39.941h-7.99c-4.151 0-7.515 3.364-7.515 7.515v46.933c0 19.924 16.209 36.133 36.133 36.133 19.924.003 36.133-16.207 36.133-36.13zm159.958-39.419v39.419c0 11.637-9.467 21.104-21.104 21.104-11.636 0-21.103-9.467-21.103-21.104v-39.419zm-201.689-105.018c0-51.331 41.761-93.092 93.092-93.092 51.332 0 93.093 41.761 93.093 93.092v89.988h-11.198v-89.988c0-45.156-36.738-81.894-81.895-81.894-20.643 0-40.373 7.733-55.557 21.773-3.047 2.818-3.233 7.572-.416 10.619 2.818 3.047 7.573 3.234 10.619.416 12.398-11.465 28.505-17.779 45.353-17.779 36.87 0 66.866 29.995 66.866 66.865v35.018h-133.73v-35.018c0-9.433 1.934-18.556 5.746-27.113 1.689-3.791-.015-8.234-3.805-9.923-3.791-1.691-8.234.015-9.923 3.805-4.676 10.495-7.047 21.675-7.047 33.23v89.988h-11.198zm-15.505 144.437v-39.419h42.206v39.419c0 11.637-9.467 21.104-21.103 21.104-11.636-.001-21.103-9.467-21.103-21.104z"/>
        </symbol>
        <symbol id="loupe" viewBox="0 0 512 512"><path d="M508.255,490.146l-128-128c-0.06-0.06-0.137-0.077-0.196-0.128c34.193-38.434,55.142-88.917,55.142-144.418c0-120.175-97.425-217.6-217.6-217.6S0.001,97.425,0.001,217.6s97.425,217.6,217.6,217.6c55.501,0,105.975-20.949,144.418-55.151c0.06,0.06,0.077,0.137,0.128,0.196l128,128c2.5,2.509,5.777,3.755,9.054,3.755s6.554-1.246,9.054-3.746C513.247,503.253,513.247,495.147,508.255,490.146z M217.601,409.6c-105.865,0-192-86.135-192-192s86.135-192,192-192s192,86.135,192,192S323.466,409.6,217.601,409.6z"/>
        </symbol>
        <symbol id="menu" viewBox="0 -66 335.628 335"><path d="m328.628906 188.3125h-321.628906c-3.867188 0-7 3.136719-7 7 0 3.867188 3.132812 7 7 7h321.628906c3.863282 0 7-3.132812 7-7 0-3.863281-3.136718-7-7-7zm0 0"/><path d="m328.628906 94.3125h-321.628906c-3.867188 0-7 3.136719-7 7 0 3.867188 3.132812 7 7 7h321.628906c3.863282 0 7-3.132812 7-7 0-3.863281-3.136718-7-7-7zm0 0"/><path d="m328.628906.3125h-321.628906c-3.867188 0-7 3.136719-7 7 0 3.867188 3.132812 7 7 7h321.628906c3.863282 0 7-3.132812 7-7 0-3.863281-3.136718-7-7-7zm0 0"/>
        </symbol>
        <symbol id="icon-email" viewBox="0 0 16 12"><path d="M14 0H2C1.175 0 0.5075 0.675 0.5075 1.5L0.5 10.5C0.5 11.325 1.175 12 2 12H14C14.825 12 15.5 11.325 15.5 10.5V1.5C15.5 0.675 14.825 0 14 0ZM13.7 3.1875L8.3975 6.5025C8.1575 6.6525 7.8425 6.6525 7.6025 6.5025L2.3 3.1875C2.1125 3.0675 2 2.865 2 2.6475C2 2.145 2.5475 1.845 2.975 2.1075L8 5.25L13.025 2.1075C13.4525 1.845 14 2.145 14 2.6475C14 2.865 13.8875 3.0675 13.7 3.1875Z"/>
        </symbol>
        <symbol id="icon-menu" viewBox="0 0 24 16"><path fill-rule="evenodd" clip-rule="evenodd" d="M0 2.66667V0H24V2.66667H0ZM0 9.33333H24V6.66667H0V9.33333ZM0 16H24V13.3333H0V16Z"/>
        </symbol>
        <symbol id="icon-vk" viewBox="0 0 24 24"><path d="m12.145 19.5c3.472 0 2.234-2.198 2.502-2.83-.004-.472-.008-.926.008-1.202.22.062.739.325 1.811 1.367 1.655 1.67 2.078 2.665 3.415 2.665h2.461c.78 0 1.186-.323 1.389-.594.196-.262.388-.722.178-1.438-.549-1.724-3.751-4.701-3.95-5.015.03-.058.078-.135.103-.175h-.002c.632-.835 3.044-4.449 3.399-5.895.001-.002.002-.005.002-.008.192-.66.016-1.088-.166-1.33-.274-.362-.71-.545-1.299-.545h-2.461c-.824 0-1.449.415-1.765 1.172-.529 1.345-2.015 4.111-3.129 5.09-.034-1.387-.011-2.446.007-3.233.036-1.535.152-3.029-1.441-3.029h-3.868c-.998 0-1.953 1.09-.919 2.384.904 1.134.325 1.766.52 4.912-.76-.815-2.112-3.016-3.068-5.829-.268-.761-.674-1.466-1.817-1.466h-2.461c-.998 0-1.594.544-1.594 1.455 0 2.046 4.529 13.544 12.145 13.544zm-8.09-13.499c.217 0 .239 0 .4.457.979 2.883 3.175 7.149 4.779 7.149 1.205 0 1.205-1.235 1.205-1.7l-.001-3.702c-.066-1.225-.512-1.835-.805-2.205l3.508.004c.002.017-.02 4.095.01 5.083 0 1.403 1.114 2.207 2.853.447 1.835-2.071 3.104-5.167 3.155-5.293.075-.18.14-.241.376-.241h2.461.01c-.001.003-.001.006-.002.009-.225 1.05-2.446 4.396-3.189 5.435-.012.016-.023.033-.034.05-.327.534-.593 1.124.045 1.954h.001c.058.07.209.234.429.462.684.706 3.03 3.12 3.238 4.08-.138.022-.288.006-2.613.011-.495 0-.882-.74-2.359-2.23-1.328-1.292-2.19-1.82-2.975-1.82-1.524 0-1.413 1.237-1.399 2.733.005 1.622-.005 1.109.006 1.211-.089.035-.344.105-1.009.105-6.345 0-10.477-10.071-10.636-11.996.055-.005.812-.002 2.546-.003z"/>
        </symbol>
        <symbol id="back-arrow" viewBox="0 0 970.477 970.477"><path d="M842.849,970.477c26.601,0,53.5-8.8,75.7-27c51.4-41.9,59.101-117.4,17.2-168.8l-234.6-288l237-290.9c41.899-51.399,34.1-127-17.2-168.8c-51.4-41.899-127-34.1-168.8,17.2l-298.8,366.7c-36,44.1-36,107.399,0,151.6l296.4,363.9C773.45,955.377,808.049,970.477,842.849,970.477z"/><path d="M328.85,926.276c23.7,29.101,58.301,44.2,93.101,44.2c26.6,0,53.5-8.8,75.7-27c51.399-41.9,59.1-117.4,17.199-168.8l-234.599-288l237-290.9c41.9-51.399,34.1-127-17.2-168.8c-51.399-41.899-127-34.1-168.799,17.2l-298.9,366.7c-36,44.1-36,107.5,0,151.6L328.85,926.276z"/>
        </symbol>
        <symbol id="forward-arrow" viewBox="0 0 898.3 898.3"><polygon points="120.2,882.5 553.6,449.2 120.2,15.8 0,136 313.2,449.2 0,762.3 		"/><polygon points="344.7,762.3 464.9,882.5 898.3,449.2 464.9,15.8 344.7,136 657.9,449.2 		"/>
        </symbol>
        <symbol id="icon-close" viewBox="0 0 11 11"><path d="M11 1.10786L9.89214 0L5.5 4.39214L1.10786 0L0 1.10786L4.39214 5.5L0 9.89214L1.10786 11L5.5 6.60786L9.89214 11L11 9.89214L6.60786 5.5L11 1.10786Z"/></symbol> <symbol id="icon-body" viewBox="0 0 12 12"><path d="M6 6C7.6575 6 9 4.6575 9 3C9 1.3425 7.6575 0 6 0C4.3425 0 3 1.3425 3 3C3 4.6575 4.3425 6 6 6ZM6 7.5C3.9975 7.5 0 8.505 0 10.5V11.25C0 11.6625 0.3375 12 0.75 12H11.25C11.6625 12 12 11.6625 12 11.25V10.5C12 8.505 8.0025 7.5 6 7.5Z"/>
        </symbol>
    </defs>
</svg>